<svg width="19" height="19" viewBox="0 0 19 19" fill="none" xmlns="http://www.w3.org/2000/svg">
<path fill-rule="evenodd" clip-rule="evenodd" d="M4.89608 16.1044C5.57438 16.1044 6.12633 16.6554 6.12633 17.3337C6.12633 18.012 5.57438 18.5639 4.89608 18.5639C4.21777 18.5639 3.66677 18.012 3.66677 17.3337C3.66677 16.6554 4.21777 16.1044 4.89608 16.1044ZM15.6124 16.1044C16.2917 16.1044 16.8436 16.6554 16.8436 17.3337C16.8436 18.012 16.2917 18.5639 15.6124 18.5639C14.9341 18.5639 14.3831 18.012 14.3831 17.3337C14.3831 16.6554 14.9341 16.1044 15.6124 16.1044ZM0.834051 0.00901272L2.81006 0.351014C3.12831 0.407064 3.37056 0.671165 3.39811 0.994167L3.62136 3.65513L4.45152 3.65548C4.58699 3.65554 4.72102 3.6556 4.85363 3.65566L6.37773 3.65639C6.49921 3.65645 6.61934 3.65651 6.73812 3.65657L8.42095 3.6575C8.52668 3.65756 8.63113 3.65762 8.73433 3.65768L9.9136 3.65843C10.007 3.6585 10.0993 3.65856 10.1903 3.65862L11.2275 3.65939C11.3094 3.65945 11.3902 3.65952 11.4699 3.65958L12.3742 3.66036C12.4454 3.66042 12.5155 3.66049 12.5845 3.66055L13.1789 3.66114C13.242 3.66121 13.3041 3.66128 13.3652 3.66134L14.0536 3.66214C14.1072 3.66221 14.16 3.66228 14.2119 3.66234L14.7931 3.66315C14.8381 3.66322 14.8824 3.66329 14.9258 3.66336L15.2952 3.66398C15.3339 3.66404 15.3718 3.66411 15.409 3.66418L15.8205 3.66502C15.8519 3.66509 15.8827 3.66516 15.9128 3.66523L16.166 3.66586C16.1923 3.66593 16.2178 3.666 16.2428 3.66607L16.5143 3.66693C16.5346 3.667 16.5544 3.66707 16.5737 3.66714L16.7331 3.66779C16.7493 3.66787 16.765 3.66794 16.7803 3.66801L16.9415 3.66889C16.9532 3.66896 16.9645 3.66904 16.9754 3.66911L17.0633 3.66978C17.072 3.66985 17.0803 3.66993 17.0883 3.67L17.1515 3.67068C17.1577 3.67075 17.1635 3.67083 17.169 3.6709L17.2121 3.67158C17.2161 3.67166 17.22 3.67174 17.2236 3.67181L17.2508 3.6725C17.2533 3.67258 17.2556 3.67266 17.2578 3.67273L17.2775 3.67366L17.2809 3.6739C17.2901 3.67476 17.2929 3.67508 17.2929 3.67508C17.822 3.75203 18.2875 4.02848 18.6048 4.45408C18.9221 4.87873 19.0551 5.40218 18.9791 5.92659L18.0776 12.1567C17.9075 13.3423 16.8777 14.2363 15.6807 14.2363H5.30572C4.05456 14.2363 2.99531 13.2597 2.89366 12.0104L2.02346 1.66107L0.5918 1.41407C0.203249 1.34567 -0.0561024 0.978017 0.0103978 0.589465C0.0787981 0.200913 0.45405 -0.0517875 0.834051 0.00901272ZM4.26094 5.08046L3.74106 5.08013L4.31391 11.8936C4.35571 12.418 4.78417 12.8113 5.30762 12.8113H15.6788C16.1738 12.8113 16.5965 12.4427 16.6668 11.9534L17.5693 5.72234C17.5902 5.57413 17.5532 5.42593 17.4629 5.30623C17.3736 5.18558 17.2425 5.10768 17.0943 5.08678C17.0875 5.08705 17.0711 5.08728 17.0456 5.0875L16.9422 5.08809C16.9206 5.08818 16.8968 5.08826 16.871 5.08834L16.3328 5.08916C16.2874 5.08919 16.2402 5.08922 16.1912 5.08924L14.9258 5.08919C14.8552 5.08917 14.7833 5.08914 14.7101 5.0891L13.266 5.08823C13.1794 5.08816 13.092 5.0881 13.0036 5.08803L12.1865 5.08738C12.0934 5.0873 11.9996 5.08722 11.9052 5.08714L11.0397 5.08638C10.9419 5.08629 10.8437 5.0862 10.7451 5.08611L10.1489 5.08556C10.0489 5.08547 9.94853 5.08538 9.84797 5.08528L8.93815 5.08443C8.8367 5.08434 8.7352 5.08424 8.63369 5.08415L8.02507 5.08358C7.92379 5.08349 7.82262 5.0834 7.72162 5.0833L7.11817 5.08276C7.0181 5.08267 6.91831 5.08258 6.81887 5.08249L5.93489 5.08173C5.83806 5.08165 5.74175 5.08157 5.64602 5.08149L4.52889 5.08064C4.43874 5.08058 4.3494 5.08052 4.26094 5.08046ZM14.153 7.16663C14.5463 7.16663 14.8655 7.48583 14.8655 7.87913C14.8655 8.27243 14.5463 8.59163 14.153 8.59163H11.5196C11.1253 8.59163 10.8071 8.27243 10.8071 7.87913C10.8071 7.48583 11.1253 7.16663 11.5196 7.16663H14.153Z" fill="#989898"/>
</svg>
