<svg width="18" height="18" viewBox="0 0 18 18" fill="none" xmlns="http://www.w3.org/2000/svg">
<path d="M9.00001 1C13.4186 1 17 4.5814 17 8.99999C17 13.4186 13.4186 17 9.00001 17M9.00001 1C4.5814 1 1 4.5814 1 8.99999C1 13.4186 4.5814 17 9.00001 17M9.00001 1C10.645 1 11.9772 4.5814 11.9772 8.99999C11.9772 13.4186 10.645 17 9.00001 17M9.00001 1C7.35503 1 6.0217 4.5814 6.0217 8.99999C6.0217 13.4186 7.35503 17 9.00001 17M1.90191 5.30555C3.25023 5.72155 4.71531 6.00436 6.22191 6.16263C8.05281 6.35463 9.94259 6.35463 11.7821 6.16263C13.2887 6.00436 14.7538 5.72155 16.1021 5.30555M16.1021 12.6921C14.7538 12.2761 13.2887 11.9932 11.7821 11.8349C9.94259 11.6429 8.05281 11.6429 6.22191 11.8349C4.71531 11.9932 3.25023 12.2761 1.90191 12.6921" stroke="#636363" stroke-width="1.5" stroke-linecap="round" stroke-linejoin="round"/>
</svg>
