<svg width="16" height="22" viewBox="0 0 16 22" fill="none" xmlns="http://www.w3.org/2000/svg">
<path fill-rule="evenodd" clip-rule="evenodd" d="M7.95968 10.8215H7.99233C10.9755 10.8215 13.4026 8.39451 13.4026 5.41129C13.4026 2.42808 10.9755 0 7.99233 0C5.00811 0 2.58109 2.42808 2.58109 5.40813C2.57582 6.85023 3.13307 8.207 4.14854 9.22983C5.16296 10.2516 6.51652 10.8173 7.95968 10.8215ZM4.16118 5.41129C4.16118 3.29923 5.88033 1.58009 7.99233 1.58009C10.1044 1.58009 11.8225 3.29923 11.8225 5.41129C11.8225 7.52335 10.1044 9.24142 7.99233 9.24142H7.96284C6.94315 9.23931 5.98772 8.83902 5.26936 8.11536C4.55094 7.39273 4.15802 6.43308 4.16118 5.41129Z" fill="#636363"/>
<path fill-rule="evenodd" clip-rule="evenodd" d="M0 18.0519C0 21.8705 6.02119 21.8705 7.99946 21.8705C9.97774 21.8705 16 21.8705 16 18.0287C16 15.0866 12.3363 12.6006 7.99946 12.6006C3.66371 12.6006 0 15.0971 0 18.0519ZM1.58009 18.0519C1.58009 16.2243 4.32524 14.1807 7.99946 14.1807C11.6748 14.1807 14.4199 16.2127 14.4199 18.0287C14.4199 19.5288 12.2594 20.2904 7.99946 20.2904C3.74061 20.2904 1.58009 19.5372 1.58009 18.0519Z" fill="#636363"/>
</svg>
